<svg width="138" height="38" viewBox="0 0 138 38" fill="none" xmlns="http://www.w3.org/2000/svg">
<path fill-rule="evenodd" clip-rule="evenodd" d="M20.3738 7.75814C23.9354 7.75814 26.2118 11.1887 26.2118 11.1887C26.2118 11.1887 22.7398 13.0665 22.7398 17.1415C22.7398 21.979 27.1036 23.3873 27.1036 23.3873C27.1036 23.3873 23.6596 31.5206 19.79 31.5206C17.6144 31.5206 17.4688 30.2748 14.5778 30.2748C12.0662 30.2748 11.2206 31.5192 9.30817 31.5192C5.65697 31.5192 0.941772 23.5887 0.941772 17.1373C0.941772 10.4387 5.71577 7.75536 8.70897 7.75536C11.3368 7.75536 12.433 9.29703 14.547 9.29703C16.3292 9.29703 17.732 7.75536 20.3738 7.75536V7.75814ZM19.7606 0.924805C20.2828 4.21092 17.291 8.27203 13.7126 8.14008C13.1876 3.96369 17.0446 1.14981 19.7578 0.928972L19.7606 0.924805Z" fill="white"/>
<mask id="mask0_29_430" style="mask-type:luminance" maskUnits="userSpaceOnUse" x="37" y="1" width="101" height="37">
<path d="M37.7296 1.12646H137.942V37.5098H37.7296V1.12785V1.12646Z" fill="white"/>
</mask>
<g mask="url(#mask0_29_430)">
<path fill-rule="evenodd" clip-rule="evenodd" d="M46.9612 25.6029L45.5472 21.2196C45.3974 20.7752 45.116 19.7196 44.7044 18.0599H44.654C44.486 18.7738 44.2228 19.8279 43.8588 21.2224L42.4686 25.6071H46.9626L46.9612 25.6029ZM51.8514 32.6029H48.9954L47.433 27.6724H41.9996L40.5086 32.6029H37.7296L43.1154 15.8154H46.4404L51.8514 32.6043V32.6029Z" fill="white"/>
</g>
<mask id="mask1_29_430" style="mask-type:luminance" maskUnits="userSpaceOnUse" x="37" y="1" width="101" height="37">
<path d="M37.7296 1.12646H137.942V37.5098H37.7296" fill="white"/>
</mask>
<g mask="url(#mask1_29_430)">
<path fill-rule="evenodd" clip-rule="evenodd" d="M62.9436 26.5001C62.9436 25.3223 62.6804 24.3501 62.1512 23.5862C61.5716 22.7904 60.7932 22.3917 59.8174 22.3917C59.1566 22.3917 58.5574 22.614 58.0184 23.0515C57.4793 23.4936 57.1076 24.1042 56.9642 24.7834C56.8802 25.1167 56.8382 25.3862 56.8382 25.6029V27.6223C56.8382 28.5029 57.1042 29.2473 57.6446 29.8542C58.1822 30.4598 58.8808 30.764 59.7404 30.764C60.7484 30.764 61.5352 30.3723 62.098 29.5945C62.6608 28.8126 62.9422 27.7834 62.9422 26.5042M65.6722 26.407C65.6722 28.4654 65.1164 30.0917 64.002 31.2876C63.0038 32.3487 61.762 32.8806 60.2836 32.8806C58.6876 32.8806 57.5396 32.3084 56.8396 31.1626V37.5154H54.1656V24.482C54.1656 23.1862 54.132 21.8598 54.0676 20.5001H56.4238L56.5736 22.4223H56.624C57.52 20.9751 58.8738 20.2515 60.6938 20.2515C62.1162 20.2515 63.3034 20.8167 64.254 21.9459C65.2032 23.0779 65.6792 24.564 65.6792 26.407" fill="white"/>
</g>
<mask id="mask2_29_430" style="mask-type:luminance" maskUnits="userSpaceOnUse" x="37" y="1" width="101" height="37">
<path d="M37.7296 1.12646H137.942V37.5098H37.7296" fill="white"/>
</mask>
<g mask="url(#mask2_29_430)">
<path fill-rule="evenodd" clip-rule="evenodd" d="M76.8176 26.5001C76.8176 25.3223 76.5516 24.3501 76.0196 23.5862C75.4414 22.7904 74.6658 22.3917 73.69 22.3917C73.0278 22.3917 72.43 22.614 71.8896 23.0515C71.3505 23.4933 70.9792 24.1042 70.8368 24.7834C70.7528 25.1167 70.7108 25.3862 70.7108 25.6029V27.6223C70.7108 28.5029 70.9796 29.2473 71.5158 29.8542C72.0534 30.4584 72.7534 30.764 73.6158 30.764C74.6238 30.764 75.412 30.3723 75.972 29.5945C76.532 28.8126 76.8162 27.7834 76.8162 26.5042M79.5462 26.407C79.5462 28.4654 78.9862 30.0917 77.8732 31.2876C76.8736 32.3487 75.6332 32.8806 74.1548 32.8806C72.5546 32.8806 71.4066 32.3084 70.7108 31.1626V37.5154H68.0284V24.482C68.0284 23.1862 67.9948 21.8598 67.9304 20.5001H70.2866L70.4364 22.4223H70.4868C71.38 20.9751 72.7366 20.2515 74.558 20.2515C75.979 20.2515 77.1676 20.8167 78.1196 21.9459C79.0674 23.0779 79.5462 24.564 79.5462 26.407Z" fill="white"/>
</g>
<path fill-rule="evenodd" clip-rule="evenodd" d="M95.0596 27.8946C95.0596 29.3251 94.5598 30.4862 93.5714 31.3834C92.4822 32.3598 90.9632 32.8501 89.0144 32.8501C87.2154 32.8501 85.772 32.5001 84.6828 31.8043L85.303 29.5612C86.479 30.2584 87.7726 30.6071 89.1768 30.6071C90.1876 30.6071 90.973 30.3807 91.5344 29.9237C92.0986 29.4654 92.3814 28.8571 92.3814 28.0946C92.3814 27.414 92.1476 26.8418 91.6856 26.3765C91.2208 25.9126 90.4536 25.4793 89.3784 25.0821C86.4468 23.9848 84.9824 22.3834 84.9824 20.2737C84.9824 18.8959 85.5004 17.7696 86.5322 16.8848C87.5654 16.0071 88.936 15.5654 90.6398 15.5654C92.1658 15.5654 93.4328 15.8321 94.4408 16.3626L93.7688 18.5571C92.8196 18.0404 91.75 17.7834 90.5544 17.7834C89.6066 17.7834 88.8646 18.0168 88.334 18.4821C87.8888 18.8959 87.662 19.4015 87.662 20.0029C87.662 20.6654 87.9196 21.2154 88.432 21.6459C88.88 22.0432 89.692 22.4765 90.8638 22.9404C92.3058 23.5237 93.3628 24.2043 94.0418 24.9821C94.7236 25.7626 95.0638 26.7348 95.0638 27.8946M103.945 22.5196H100.991V28.3946C100.991 29.8918 101.512 30.6376 102.555 30.6376C103.035 30.6376 103.434 30.5959 103.745 30.5126L103.821 32.5543C103.294 32.7529 102.6 32.8529 101.739 32.8529C100.679 32.8529 99.8532 32.5279 99.2568 31.8807C98.6604 31.2307 98.3608 30.1446 98.3608 28.6168V22.5098H96.6024V20.4959H98.3622V18.2793L100.994 17.4821V20.4959H103.948V22.5182L103.945 22.5196ZM114.468 26.5154C114.468 25.4071 114.23 24.4557 113.751 23.6598C113.188 22.6987 112.383 22.2182 111.343 22.2182C110.269 22.2182 109.445 22.6987 108.886 23.6598C108.404 24.4557 108.165 25.4237 108.165 26.5654C108.165 27.6765 108.403 28.6293 108.886 29.4237C109.466 30.3848 110.272 30.8654 111.322 30.8654C112.344 30.8654 113.146 30.3751 113.73 29.3987C114.22 28.5862 114.468 27.6265 114.468 26.5154ZM117.247 26.4543C117.247 28.3154 116.715 29.8432 115.656 31.0376C114.546 32.2668 113.075 32.8807 111.238 32.8807C109.466 32.8807 108.056 32.2904 107.004 31.114C105.957 29.9334 105.431 28.4473 105.431 26.6557C105.431 24.7807 105.974 23.2432 107.055 22.0487C108.14 20.8543 109.6 20.2543 111.437 20.2543C113.206 20.2543 114.629 20.8459 115.704 22.0223C116.733 23.1668 117.244 24.6432 117.244 26.4529M125.96 22.8668C125.682 22.8157 125.398 22.7906 125.115 22.7918C124.171 22.7918 123.443 23.1501 122.931 23.8668C122.483 24.4973 122.262 25.2946 122.262 26.2557V32.6098H119.582V24.314C119.582 22.9209 119.554 21.6473 119.504 20.5029H121.837L121.935 22.8196H122.01C122.294 22.0251 122.738 21.3834 123.349 20.9029C123.907 20.4831 124.587 20.2554 125.287 20.2543C125.532 20.2543 125.755 20.2709 125.953 20.3029L125.956 22.8696L125.96 22.8668ZM135.388 25.2834C135.408 24.4848 135.231 23.7973 134.87 23.214C134.404 22.4668 133.69 22.0932 132.734 22.0932C131.856 22.0932 131.143 22.4571 130.6 23.1904C130.155 23.7709 129.889 24.4682 129.808 25.2807L135.388 25.2834ZM137.944 25.9807C137.944 26.4626 137.912 26.8696 137.846 27.2029H129.808C129.836 28.3973 130.228 29.3112 130.972 29.9418C131.65 30.5029 132.526 30.7848 133.602 30.7848C134.792 30.7848 135.878 30.5973 136.855 30.2154L137.275 32.0807C136.134 32.5807 134.783 32.8307 133.232 32.8307C131.362 32.8307 129.893 32.2779 128.825 31.1751C127.761 30.0709 127.225 28.5862 127.225 26.7279C127.225 24.9043 127.72 23.3848 128.714 22.1723C129.756 20.8779 131.164 20.2307 132.932 20.2307C134.671 20.2307 135.987 20.8779 136.88 22.1723C137.587 23.1973 137.944 24.4682 137.944 25.9779V25.9807ZM43.2666 6.36677L42.5708 4.214C42.498 3.99178 42.3636 3.47789 42.1564 2.65844H42.1312C42.0472 3.01122 41.924 3.5265 41.7392 4.214L41.0574 6.36677H43.2666ZM45.6676 9.80428H44.2676L43.4976 7.38066H40.8264L40.0956 9.80566H38.7264L41.3724 1.55566H43.0076L45.6676 9.80428ZM52.2896 3.85705L50.0426 9.80428H48.7616L46.5916 3.85705H48.0056L49.0192 7.00289C49.19 7.53066 49.3356 8.03066 49.4448 8.50705H49.4826C49.5806 8.07928 49.7262 7.5765 49.9082 7.00289L50.9064 3.85566H52.2854L52.2896 3.85705ZM56.8816 6.84316C55.42 6.84316 54.6878 7.19872 54.6878 8.04178C54.6878 8.66677 55.0658 8.97233 55.5908 8.97233C56.2628 8.97233 56.883 8.45844 56.883 7.76122V6.84455L56.8816 6.84316ZM57.0678 9.80566L56.9698 9.12094H56.932C56.5302 9.67233 55.945 9.94039 55.2002 9.94039C54.1362 9.94039 53.3802 9.19455 53.3802 8.19039C53.3802 6.72094 54.6486 5.96261 56.8438 5.96261V5.8515C56.8438 5.06816 56.4294 4.6765 55.6118 4.6765C55.0628 4.6667 54.5234 4.82055 54.0634 5.11816L53.7946 4.24872C54.3448 3.90566 55.0266 3.73483 55.833 3.73483C57.3814 3.73483 58.1626 4.55427 58.1626 6.19594V8.38483C58.1626 8.98761 58.1878 9.45427 58.2466 9.80705H57.0636L57.0678 9.80566Z" fill="white"/>
<mask id="mask3_29_430" style="mask-type:luminance" maskUnits="userSpaceOnUse" x="37" y="1" width="101" height="37">
<path d="M37.7296 1.12646H137.942V37.5098H37.7296V1.12785V1.12646Z" fill="white"/>
</mask>
<g mask="url(#mask3_29_430)">
<path fill-rule="evenodd" clip-rule="evenodd" d="M61.7844 9.80711H60.4684V3.85711H61.7844V9.80711ZM61.1012 2.87656C60.9968 2.87679 60.8934 2.8562 60.7971 2.81602C60.7008 2.77585 60.6137 2.7169 60.5408 2.64267C60.468 2.56845 60.4109 2.48046 60.373 2.38392C60.335 2.28739 60.317 2.18429 60.32 2.08072C60.32 1.63072 60.6742 1.29878 61.1264 1.29878C61.5772 1.29878 61.9426 1.63211 61.93 2.0835C61.93 2.56128 61.5898 2.87934 61.1012 2.87934V2.87656ZM65.4412 9.80711H64.1252V1.12656H65.4412V9.80711ZM70.8592 6.84322C69.3934 6.84322 68.6612 7.19878 68.6612 8.04184C68.6612 8.66684 69.0392 8.97239 69.5642 8.97239C70.232 8.97239 70.855 8.4585 70.855 7.76128V6.84461L70.8592 6.84322ZM71.0412 9.80572L70.9432 9.121H70.9068C70.5036 9.67239 69.9184 9.94045 69.1736 9.94045C68.1138 9.94045 67.3564 9.19461 67.3564 8.19045C67.3564 6.721 68.6248 5.96267 70.8214 5.96267V5.85156C70.8214 5.06822 70.4056 4.67656 69.5894 4.67656C69.0014 4.67656 68.4904 4.82378 68.041 5.11822L67.775 4.24739C68.3238 3.90711 69.007 3.7335 69.812 3.7335C71.3604 3.7335 72.143 4.55295 72.143 6.19739V8.38489C72.143 8.98628 72.1668 9.45156 72.227 9.80572H71.0412ZM77.2096 4.77378C76.4508 4.77378 75.7564 5.43489 75.7564 6.35295V7.39461C75.7564 8.21406 76.3794 8.88767 77.1844 8.88767C78.1728 8.88767 78.7594 8.07933 78.7594 6.79461C78.7594 5.59461 78.1476 4.77378 77.2082 4.77378M77.4742 9.94045C76.6342 9.94045 76.0112 9.58489 75.608 8.88767H75.5828L75.5058 9.80434H74.3858C74.4194 9.32934 74.432 8.79045 74.432 8.20295V1.12378H75.7508V4.72378H75.7746C76.1638 4.06267 76.7966 3.73211 77.6646 3.73211C79.0926 3.73211 80.0922 4.9585 80.0922 6.746C80.0922 8.59322 78.982 9.94045 77.47 9.94045M83.364 9.80711H82.048V1.12656H83.364V9.80711ZM89.3252 6.20711C89.3252 5.29045 88.8632 4.64045 88.0204 4.64045C87.2616 4.64045 86.668 5.30156 86.5784 6.20711H89.3252ZM90.5334 7.14878H86.5784C86.6064 8.27656 87.3484 8.91267 88.4446 8.91267C89.0326 8.91267 89.5674 8.81267 90.0406 8.63072L90.2464 9.54739C89.6864 9.79322 89.0284 9.91545 88.2584 9.91545C86.4062 9.91545 85.3086 8.74045 85.3086 6.91545C85.3086 5.09322 86.4314 3.721 88.1128 3.721C89.6206 3.721 90.5768 4.84878 90.5768 6.55017C90.5796 6.77933 90.567 6.98767 90.5306 7.14739L90.5334 7.14878ZM98.5694 4.70017C97.6174 4.70017 97.0056 5.59322 97.0056 6.84183C97.0056 8.06406 97.6314 8.9585 98.5596 8.9585C99.4836 8.9585 100.107 8.00295 100.107 6.81406C100.107 5.60572 99.4962 4.69878 98.5708 4.69878M98.5176 9.94045C96.7858 9.94045 95.6616 8.64322 95.6616 6.88072C95.6616 5.04461 96.8096 3.7335 98.6184 3.7335C100.322 3.7335 101.472 4.96961 101.472 6.78628C101.472 8.64739 100.289 9.94322 98.5176 9.94322M108.556 9.8085H107.24V6.39184C107.24 5.34045 106.836 4.81267 106.043 4.81267C105.263 4.81267 104.724 5.48628 104.724 6.271V9.8085H103.408V5.5585C103.408 5.0335 103.394 4.46961 103.359 3.8585H104.518L104.58 4.77517H104.616C104.966 4.13628 105.69 3.7335 106.492 3.7335C107.738 3.7335 108.554 4.68767 108.554 6.24184V9.80572L108.556 9.8085ZM117.173 4.85017H115.724V7.73906C115.724 8.47517 115.978 8.84183 116.489 8.84183C116.722 8.84183 116.918 8.81684 117.077 8.78072L117.112 9.78489C116.856 9.88211 116.513 9.93211 116.09 9.93211C115.05 9.93211 114.431 9.35711 114.431 7.84878V4.84878H113.568V3.85711H114.431V2.76684L115.724 2.37378V3.85711H117.173V4.84739V4.85017ZM124.149 9.8085H122.83V6.41961C122.83 5.35295 122.427 4.81406 121.634 4.81406C120.951 4.81406 120.318 5.27934 120.318 6.22239V9.81128H119V1.12656H120.318V4.70017H120.346C120.758 4.05156 121.354 3.7335 122.124 3.7335C123.382 3.7335 124.149 4.71545 124.149 6.26961V9.8085ZM129.672 6.21128C129.672 5.29461 129.21 4.64184 128.367 4.64184C127.611 4.64184 127.016 5.30434 126.929 6.21128H129.673H129.672ZM130.88 7.15156H126.926C126.952 8.27933 127.694 8.91545 128.791 8.91545C129.379 8.91545 129.914 8.81545 130.387 8.6335L130.594 9.55017C130.034 9.796 129.376 9.91822 128.606 9.91822C126.751 9.91822 125.655 8.74322 125.655 6.91822C125.655 5.096 126.775 3.72378 128.459 3.72378C129.971 3.72378 130.923 4.85156 130.923 6.55295C130.929 6.78211 130.916 6.99045 130.881 7.15017L130.88 7.15156Z" fill="white"/>
</g>
</svg>
