<svg width="144" height="39" viewBox="0 0 144 39" fill="none" xmlns="http://www.w3.org/2000/svg">
<path d="M21.944 13.293L3.2862 3.07075C2.757 2.78325 2.2698 2.7138 1.875 2.8388L17.156 18.061L21.944 13.2902" fill="url(#paint0_linear_29_450)"/>
<path fill-rule="evenodd" clip-rule="evenodd" d="M21.9678 22.8583L28.3378 19.3694C29.6286 18.6583 29.6286 17.5028 28.3378 16.7944L21.944 13.2944L17.156 18.0639L21.9678 22.8583Z" fill="url(#paint1_linear_29_450)"/>
<path d="M1.87501 2.83887C1.30521 3.01387 0.937012 3.58887 0.937012 4.44998L0.942612 31.7083C0.942612 32.5639 1.29821 33.1278 1.84981 33.3166L17.156 18.0639L1.87501 2.83887Z" fill="url(#paint2_linear_29_450)"/>
<path d="M1.84985 33.3194C2.24745 33.4528 2.74585 33.3889 3.28625 33.0944L21.9651 22.8583L17.1561 18.0667L1.84985 33.3194Z" fill="url(#paint3_linear_29_450)"/>
<path fill-rule="evenodd" clip-rule="evenodd" d="M44.3607 1.44043C45.5367 1.44043 46.3515 1.96543 46.8807 2.50293L46.0547 3.42376C45.6291 3.01404 45.1629 2.7321 44.3747 2.7321C42.8739 2.7321 41.8659 3.88487 41.8659 5.76543C41.8659 7.67376 42.7703 8.82654 44.4643 8.82654C44.9305 8.82654 45.3953 8.69876 45.6683 8.45432V6.64876H44.0751V5.43487H47.0109V9.12099C46.4299 9.65849 45.4345 10.1182 44.2837 10.1182C42.0325 10.1182 40.3259 8.58349 40.3259 5.80571C40.3259 3.06543 42.0843 1.44043 44.3579 1.44043M52.5731 6.26404C52.5731 5.26682 52.1489 4.66682 51.2823 4.66682C50.5319 4.66682 49.8851 5.21543 49.7563 6.26404H52.5731ZM51.2431 3.52793C52.9623 3.52793 53.8681 4.75432 53.8681 6.5071C53.8681 6.79043 53.8401 7.0446 53.8037 7.19876H49.7689C49.8949 8.33765 50.6229 8.97932 51.6449 8.97932C52.1853 8.97932 52.6501 8.81265 53.1149 8.51821L53.6189 9.43904C53.0127 9.83487 52.2511 10.1168 51.4489 10.1168C49.6891 10.1168 48.3199 8.90154 48.3199 6.82793C48.3213 4.77793 49.7563 3.52793 51.2431 3.52793ZM55.3171 4.8446H54.4141V3.7446L55.3969 3.68071L55.5789 1.96404H56.8193V3.68071H58.4349V4.8446H56.8193V7.83904C56.8193 8.58071 57.1021 8.93904 57.7111 8.93904C57.9309 8.93904 58.1899 8.87515 58.3691 8.80015L58.6295 9.88626C58.2795 10.0015 57.8399 10.1168 57.3359 10.1168C55.8617 10.1168 55.3199 9.1946 55.3199 7.83904V4.8446H55.3171Z" fill="#E7E7E7"/>
<mask id="mask0_29_450" style="mask-type:luminance" maskUnits="userSpaceOnUse" x="38" y="0" width="106" height="39">
<path d="M38.5032 0.902832H143.422V38.1251H38.5032V0.902832Z" fill="#E7E7E7"/>
</mask>
<g mask="url(#mask0_29_450)">
<path fill-rule="evenodd" clip-rule="evenodd" d="M62.4208 3.68061H63.9076V9.96394H62.4208V3.68061ZM62.2528 1.74728C62.2528 1.24728 62.6406 0.902832 63.1698 0.902832C63.7018 0.902832 64.0868 1.25005 64.0868 1.74728C64.0868 2.23339 63.7004 2.58061 63.1684 2.58061C62.6364 2.58061 62.25 2.23339 62.25 1.74728H62.2528ZM66.03 4.8445H65.1242V3.7445L66.1084 3.68061L66.2904 1.96394H67.5308V3.68061H69.1464V4.8445H67.5308V7.83894C67.5308 8.58061 67.8136 8.93894 68.4226 8.93894C68.6438 8.93894 68.9014 8.87505 69.0834 8.80005L69.3424 9.88616C68.9924 10.0014 68.5528 10.1167 68.0488 10.1167C66.5746 10.1167 66.0328 9.1945 66.0328 7.83894V4.8445H66.03ZM75.7292 8.91394C76.6616 8.91394 77.23 8.08061 77.23 6.82783C77.23 5.56116 76.6616 4.73061 75.7292 4.73061C74.7982 4.73061 74.2452 5.56116 74.2452 6.82783C74.2452 8.082 74.7982 8.91394 75.7292 8.91394ZM75.7292 3.52505C77.3196 3.52505 78.756 4.72922 78.756 6.82783C78.756 8.91394 77.3196 10.1195 75.7292 10.1195C74.1514 10.1195 72.7192 8.91394 72.7192 6.82783C72.7192 4.73061 74.1514 3.52644 75.7292 3.52644M80.233 3.68061H81.4608L81.5644 4.52505H81.6148C82.1846 3.97505 82.8328 3.52505 83.698 3.52505C85.056 3.52505 85.6496 4.43478 85.6496 6.02228V9.96394H84.1628V6.21394C84.1628 5.17644 83.8688 4.7945 83.1688 4.7945C82.6116 4.7945 82.2504 5.06117 81.7184 5.57228V9.96394H80.2344V3.68061H80.233Z" fill="#E7E7E7"/>
</g>
<mask id="mask1_29_450" style="mask-type:luminance" maskUnits="userSpaceOnUse" x="38" y="0" width="106" height="39">
<path d="M38.5032 0.902832H143.422V38.1251H38.5032V0.902832Z" fill="white"/>
</mask>
<g mask="url(#mask1_29_450)">
<path fill-rule="evenodd" clip-rule="evenodd" d="M114.498 22.7529C113.442 22.7529 112.678 23.0445 112.206 23.6237C111.734 24.2015 111.492 25.1237 111.478 26.3876V26.7348C111.478 28.1709 111.72 29.1987 112.206 29.8209C112.689 30.4404 113.466 30.7515 114.537 30.7515C115.43 30.7515 116.133 30.3904 116.637 29.6751C117.145 28.9612 117.397 27.9723 117.397 26.714C117.397 25.439 117.145 24.4584 116.636 23.7765C116.132 23.0932 115.418 22.7515 114.497 22.7515M114.725 32.0473C114.05 32.0473 113.437 31.9251 112.88 31.6793C112.32 31.4311 111.836 31.0394 111.48 30.5445H111.363C111.44 31.1418 111.478 31.7084 111.478 32.2432V36.457H109.913V21.6251H111.187L111.403 23.0251H111.478C111.881 22.464 112.349 22.0626 112.887 21.8112C113.464 21.5544 114.092 21.4273 114.725 21.439C116.097 21.439 117.155 21.9015 117.903 22.8279C118.645 23.7557 119.017 25.0598 119.017 26.7348C119.017 28.4154 118.639 29.7209 117.883 30.6515C117.123 31.582 116.072 32.0473 114.725 32.0473ZM122.646 31.8612H121.078V17.3279H122.646V31.8612ZM128.114 30.7695C129.09 30.7695 129.857 30.5057 130.41 29.9779C130.968 29.4459 131.246 28.7043 131.246 27.7515V26.8307L129.678 26.8945C128.432 26.939 127.536 27.1307 126.987 27.4695C126.436 27.8084 126.161 28.339 126.161 29.0529C126.161 29.6126 126.329 30.039 126.675 30.3307C127.018 30.6251 127.497 30.7695 128.114 30.7695ZM131.651 31.8626L131.343 30.407H131.266C130.748 31.0501 130.234 31.4834 129.72 31.7084C129.209 31.9348 128.568 32.0487 127.802 32.0487C126.776 32.0487 125.972 31.7876 125.39 31.2654C124.808 30.7432 124.516 30.0015 124.516 29.0334C124.516 26.9668 126.185 25.8807 129.528 25.7834L131.283 25.7279V25.089C131.283 24.289 131.108 23.6945 130.758 23.3112C130.408 22.9293 129.848 22.7376 129.082 22.7376C128.221 22.7376 127.248 23.0015 126.16 23.5223L125.677 22.3348C126.187 22.0626 126.745 21.8487 127.351 21.6904C127.949 21.5367 128.563 21.4587 129.18 21.4584C130.412 21.4584 131.325 21.7279 131.92 22.2709C132.513 22.8126 132.811 23.6793 132.811 24.8751V31.8612H131.649L131.651 31.8626ZM133.723 21.6251H135.403L137.668 27.464C138.162 28.7973 138.473 29.7584 138.592 30.3501H138.666C138.75 30.0307 138.918 29.489 139.184 28.7182C139.443 27.9501 140.296 25.5834 141.742 21.6237H143.422L138.98 33.2807C138.537 34.4334 138.024 35.2501 137.434 35.7334C136.846 36.2168 136.124 36.4557 135.27 36.4557C134.791 36.4557 134.318 36.4001 133.853 36.2959V35.0529C134.199 35.1307 134.587 35.1668 135.015 35.1668C136.089 35.1668 136.856 34.5668 137.315 33.3751L137.895 31.9168L133.723 21.6209V21.6251ZM84.7984 28.014C85.2968 27.5195 85.3402 26.839 85.3402 26.4515C85.3402 24.9098 84.4092 22.5112 82.6144 22.5112C82.0516 22.5112 81.4454 22.7918 81.0996 23.2195C80.7314 23.6682 80.6236 24.2473 80.6236 24.8029C80.6236 26.2376 81.4692 28.6168 83.3284 28.6168C83.8768 28.6036 84.4007 28.3888 84.7984 28.014ZM84.1726 32.0834C84.0004 32.0612 83.8926 32.0612 83.677 32.0612C83.481 32.0612 82.312 32.1029 81.4048 32.4084C80.9288 32.5751 79.5428 33.0918 79.5428 34.6098C79.5428 36.1279 81.038 37.2209 83.3508 37.2209C85.4284 37.2209 86.5316 36.2376 86.5316 34.9098C86.5316 33.8154 85.8176 33.239 84.174 32.0834H84.1726ZM85.7084 22.5765C86.2082 22.982 87.2442 23.8404 87.2442 25.4654C87.2442 27.0515 86.3342 27.8015 85.4284 28.507C85.1484 28.782 84.8208 29.0876 84.8208 29.5584C84.8208 30.0279 85.147 30.2848 85.385 30.4779L86.1648 31.0751C87.1168 31.8709 87.9806 32.5973 87.9806 34.0751C87.9806 36.089 86.0094 38.1237 82.291 38.1237C79.155 38.1237 77.643 36.6432 77.643 35.0598C77.643 34.2876 78.028 33.1987 79.309 32.4459C80.6474 31.632 82.466 31.5265 83.439 31.4598C83.1338 31.0765 82.7894 30.6682 82.7894 30.0084C82.7894 29.6404 82.8972 29.4251 83.005 29.1682C82.767 29.1904 82.529 29.2098 82.312 29.2098C80.0216 29.2098 78.7238 27.5182 78.7238 25.8487C78.7238 24.8654 79.1774 23.7723 80.107 22.9807C81.339 21.9751 82.809 21.8029 83.9808 21.8029H88.437L87.051 22.5737H85.7098L85.7084 22.5765ZM74.7884 30.0098C75.3064 29.3265 75.4366 28.4682 75.4366 27.6348C75.4366 25.7543 74.5336 22.1626 71.8526 22.1626C71.1414 22.1626 70.4288 22.4404 69.9108 22.8904C69.0708 23.6404 68.9168 24.5807 68.9168 25.5015C68.9168 27.6168 69.9752 31.1015 72.589 31.1015C73.429 31.1015 74.297 30.6945 74.7898 30.0112M72.092 31.7445C68.6592 31.7445 66.8238 29.0918 66.8238 26.6959C66.8238 23.8973 69.1338 21.5015 72.4168 21.5015C75.5906 21.5015 77.5786 23.9598 77.5786 26.5487C77.5786 29.0709 75.613 31.7432 72.0906 31.7432M63.0844 30.0098C63.6024 29.3265 63.7312 28.4682 63.7312 27.6348C63.7312 25.7543 62.824 22.1626 60.1472 22.1626C59.4332 22.1626 58.7192 22.4404 58.204 22.8904C57.3584 23.6404 57.21 24.5807 57.21 25.5015C57.21 27.6168 58.267 31.1015 60.8808 31.1015C61.7236 31.1015 62.586 30.6945 63.0844 30.0112M60.3852 31.7445C56.9496 31.7445 55.1128 29.0918 55.1128 26.6959C55.1128 23.8973 57.4256 21.5015 60.7086 21.5015C63.8838 21.5015 65.8704 23.9598 65.8704 26.5487C65.8704 29.0709 63.9062 31.7432 60.3866 31.7432M53.4622 31.407L50.3598 32.1154C49.0956 32.3098 47.9658 32.4793 46.7758 32.4793C40.7838 32.4793 38.5018 28.1182 38.5018 24.7015C38.5018 20.5307 41.7358 16.6626 47.2742 16.6626C48.3965 16.6646 49.5134 16.8159 50.595 17.1126C52.2246 17.5654 52.9848 18.1237 53.4608 18.4459L51.659 20.1432L50.9002 20.3154L51.4434 19.4543C50.7042 18.7459 49.3574 17.4348 46.7954 17.4348C43.3654 17.4348 40.7824 20.0182 40.7824 23.7779C40.7824 27.8168 43.7322 31.6223 48.4656 31.6223C49.8572 31.6223 50.5726 31.3404 51.2236 31.0834V27.6251L47.9476 27.7959L49.6836 26.8682H54.2868L53.7212 27.4098C53.5672 27.5376 53.5462 27.5793 53.5042 27.7529C53.4818 27.9445 53.4594 28.5695 53.4594 28.7807V31.4057L53.4622 31.407Z" fill="white"/>
</g>
<mask id="mask2_29_450" style="mask-type:luminance" maskUnits="userSpaceOnUse" x="38" y="0" width="106" height="39">
<path d="M38.5032 0.902832H143.422V38.1251H38.5032V0.902832Z" fill="white"/>
</mask>
<g mask="url(#mask2_29_450)">
<path fill-rule="evenodd" clip-rule="evenodd" d="M92.5712 30.7874C91.8544 30.7222 91.7032 30.5958 91.7032 29.7541V17.5902L91.7172 17.4513C91.804 16.6986 92.0196 16.5708 92.6972 16.1819H89.5892L87.9596 16.9597H89.6186V30.2263C89.6186 30.6569 89.5346 30.7222 89.0334 31.3652H92.8764L93.6814 30.8972C93.3118 30.8499 92.9422 30.8305 92.5726 30.7861M99.3794 24.6208C99.7896 24.4736 100.004 24.343 100.004 24.0472C100.004 23.1944 99.0336 22.2111 97.8688 22.2111C97.005 22.2111 95.3908 22.8736 95.3908 25.1791C95.3908 25.5402 95.4328 25.9249 95.4566 26.3083L99.3766 24.6194L99.3794 24.6208ZM101.409 30.9847C101.171 31.1097 100.933 31.2624 100.698 31.3666C99.9842 31.6902 99.2506 31.7736 98.6024 31.7736C97.9164 31.7736 96.8356 31.7291 95.7366 30.9402C94.205 29.8736 93.5386 28.0374 93.5386 26.4361C93.5386 23.1263 96.2574 21.5055 98.4764 21.5055C99.252 21.5055 100.05 21.6999 100.7 22.1027C101.775 22.8069 102.055 23.7236 102.206 24.2166L97.1408 26.2444L95.479 26.3736C96.018 29.0819 97.873 30.6624 99.9212 30.6624C101.022 30.6624 101.82 30.2777 102.553 29.9166L101.411 30.9861L101.409 30.9847ZM103.488 21.6527V23.061H103.315V21.6527H102.844V21.5069H103.96V21.6527H103.488ZM105.427 23.061V21.6388H105.423L104.982 23.061H104.846L104.404 21.6402H104.4V23.0624H104.24V21.5069H104.51L104.911 22.7652H104.914L105.308 21.5083H105.58V23.0638H105.426L105.427 23.061Z" fill="white"/>
</g>
<defs>
<linearGradient id="paint0_linear_29_450" x1="387.501" y1="-534.48" x2="1004.43" y2="1547.25" gradientUnits="userSpaceOnUse">
<stop stop-color="#19A3B4"/>
<stop offset="0.34817" stop-color="#5BC3AF"/>
<stop offset="0.92234" stop-color="#C9F7A6"/>
<stop offset="1" stop-color="#D7FEA5"/>
</linearGradient>
<linearGradient id="paint1_linear_29_450" x1="-161.423" y1="-1080.07" x2="548.636" y2="1221.64" gradientUnits="userSpaceOnUse">
<stop stop-color="#FC227C"/>
<stop offset="1" stop-color="#FEEB7B"/>
</linearGradient>
<linearGradient id="paint2_linear_29_450" x1="457.518" y1="-448.659" x2="1498.72" y2="2253.26" gradientUnits="userSpaceOnUse">
<stop stop-color="#0E4DA0"/>
<stop offset="1" stop-color="#6BFED4"/>
</linearGradient>
<linearGradient id="paint3_linear_29_450" x1="2661.98" y1="270.312" x2="725.66" y2="2481.82" gradientUnits="userSpaceOnUse">
<stop stop-color="#FC472E"/>
<stop offset="0.00332" stop-color="#FC472E"/>
<stop offset="1" stop-color="#893CD8"/>
</linearGradient>
</defs>
</svg>
